
<svg id="fluxLogoF" version="1.1" xmlns="http://www.w3.org/2000/svg" xmlns:xlink="http://www.w3.org/1999/xlink" x="0px" y="0px" viewBox="0 0 369.5 104.6" enable-background="new 0 0 369.5 104.6" xml:space="preserve">
	<g id="f1">
		<path fill="#483D41" d="M76.9,37.8c0,0.3-0.4,0.6-1.1,1c-0.7,0.4-1.4,0.5-2.1,0.5c-0.3,0-0.7-0.1-1.2-0.2c-0.5-0.2-0.8-0.3-0.8-0.5
			c-0.7-5.2-2.9-10.2-6.5-14.8c-3.6-4.6-8.9-6.9-15.8-6.9h-7.1c-1.6,0-3.2,0.4-4.7,1.2c-1.5,0.8-2.2,2.7-2.2,5.8v24.8h5.9
			c4,0,7.2-1.2,9.5-3.5c2.4-2.4,3.8-5.4,4.2-9.3c0-0.2,0.3-0.4,0.9-0.6c0.6-0.2,1.2-0.3,1.7-0.3c0.5,0,1.1,0.1,1.7,0.3
			c0.6,0.2,0.9,0.4,0.9,0.6c0,2.9-0.1,5.6-0.4,8.1c-0.2,2.5-0.4,5.1-0.4,7.8c0,2.7,0.1,5.3,0.4,7.7c0.2,2.4,0.4,5,0.4,7.8
			c0,0.2-0.3,0.5-0.9,0.6c-0.6,0.2-1.2,0.3-1.7,0.3c-0.5,0-1.1-0.1-1.7-0.3c-0.6-0.2-0.9-0.4-0.9-0.6c-0.5-4.1-1.9-7.2-4.1-9.5
			c-2.2-2.2-5.4-3.4-9.7-3.4h-5.9v22.8c0,3.1,0.9,5.4,2.7,6.9c1.8,1.5,5,2.5,9.5,2.9c0.2,0,0.4,0.3,0.6,1c0.2,0.7,0.3,1.2,0.3,1.6
			c0,0.5-0.1,1-0.3,1.6c-0.2,0.6-0.4,0.9-0.6,0.9c-3.8,0-7.9-0.1-12.1-0.3c-4.2-0.2-8.2-0.3-11.8-0.3c-3.6,0-7.3,0.1-11.2,0.3
			c-3.9,0.2-7.7,0.3-11.6,0.3c-0.2,0-0.5-0.3-0.6-0.9C0.1,90.9,0,90.3,0,89.7c0-0.4,0.1-0.9,0.3-1.5c0.2-0.6,0.4-1,0.6-1.1
			c4.5-0.5,7.5-1.5,9-2.9c1.4-1.4,2.2-3.7,2.2-6.9V25.7c0-3.2-0.7-5.5-2.2-6.9c-1.4-1.4-4.4-2.4-9-2.9c-0.2-0.1-0.5-0.4-0.6-1.1
			C0.1,14.1,0,13.6,0,13.2c0-0.5,0.1-1.1,0.3-1.7c0.2-0.6,0.4-0.9,0.6-0.9C5.2,10.7,11.2,10.8,19,11c7.8,0.2,14.3,0.2,19.3,0.2
			c4.5,0,10.6-0.1,18.5-0.2c7.8-0.1,14.1-0.3,18.9-0.4c0,3.4,0.1,7.8,0.4,13.3C76.4,29.5,76.6,34.1,76.9,37.8z"/>
	</g>
	<g id="f2">
		<path fill="#483D41" d="M71.5,25.4c0,0.3-2.5-0.1-3.6,0c-0.6,0-1.8,0.1-2.3,0.1c-0.3,0-1.7,0-2.1-0.1c-0.4-0.1-2.8,0.2-2.8,0.1
			c-3.4-0.3,0,0-5.5,0c-4.8,0-3.3-0.1-9-0.1h-5.6c-1.3,0-8.4,0-10.1,0c-0.7,0-0.3,2.7-0.3,5.2V43h14.7c3.3,0,2,0,4.4,0
			c2.7,0,0.5,0.2,3.6,0c1,0.1,1.7,0,2.7,0c0.5,0,3.1,0,3.5,0c0.4,0,5.2,0,5.8,0c0.5,0,5.7-0.2,5.7,0c0,2.4,0.2,2.4,0,4.4
			c-0.2,2,0.1,9,0,11.1c0,0.8-3.5,0.1-9.4,0.2c-2,0-1.8-0.2-4.8,0c-0.2,0-2.6,0-3.3-0.1c-0.5-0.1-1.8,0.1-2.2,0.1
			c-0.4,0-1,0.4-1.5,0.2c-0.5-0.2-1.8,0-1.8-0.2c-2.2,0-1.6,0-4.4,0c-2.5,0-1.2,0-4.8,0h-8.3v14.2c0,2.6,0,7.2,0,9.1
			c-0.1,2.4-0.1,2.1,0,4c0.2,0-0.2,4.8,0,5.3c0.2,0.5,0,1.4,0,1.7c0,0.4,0,0-0.6,0.1c-0.5,0.1-1.7,0-1.9,0c-3.1,0-0.9,0.2-4.3,0
			c-3.4-0.2,0.8,0-2.1,0c-2.9,0,0.6-0.2-2.6,0c-3.2,0.2,0,0-3.1,0c-0.2,0-1.3,0.1-1.8,0c-0.5-0.1-1.3,0.4-1.3,0c0-0.3,0-2.1,0-2.7
			c0-0.6-0.1-5.1,0-5.8c0.1-3.7,0-4.3,0.1-6c0.1-1.5-0.1-3.7-0.1-6.4V33.4c0-2.6,0-3,0-4.7c0-1.7,0-1.1,0-3.7c-0.2-0.1,0-1.9-0.1-2.4
			c-0.2-0.5,0.1-1,0.1-1.3c0-0.4,0-5.3,0.2-5.8c0.2-0.5-0.3-5.7-0.1-5.7c3.4,0.1,6-0.2,12.4,0c6.4,0.1,10.4,0,14.5,0
			c3.6,0,7.7,0.1,14.1,0c6.4-0.1,14.3,0.1,18.2,0c0,2.7-0.2,2.6,0,7.1C71.7,21.3,71.3,22.4,71.5,25.4z"/>
	</g>
</svg>

<svg id="fluxLogoL" version="1.1" xmlns="http://www.w3.org/2000/svg" xmlns:xlink="http://www.w3.org/1999/xlink" x="0px" y="0px" viewBox="0 0 369.5 104.6" enable-background="new 0 0 369.5 104.6" xml:space="preserve">

	<g id="l1">
		<path fill="#483D41" d="M161.5,62c-0.5,4.4-1.1,9.8-1.6,16.1c-0.5,6.3-0.8,11.1-1,14.2c-4.9-0.2-11.1-0.3-18.5-0.4
			c-7.4-0.1-13.4-0.2-18-0.2c-5,0-11.5,0.1-19.4,0.2c-7.9,0.2-13.8,0.3-17.8,0.4c-0.2,0-0.5-0.3-0.6-0.9c-0.2-0.6-0.3-1.2-0.3-1.7
			c0-0.4,0.1-0.9,0.3-1.5c0.2-0.6,0.4-1,0.6-1.1c4.5-0.5,7.5-1.5,9-2.9c1.4-1.4,2.2-3.7,2.2-6.9V25.7c0-3.2-0.7-5.5-2.2-6.9
			c-1.4-1.4-4.4-2.4-9-2.9c-0.2-0.1-0.5-0.4-0.6-1.1c-0.2-0.6-0.3-1.1-0.3-1.5c0-0.5,0.1-1.1,0.3-1.7c0.2-0.6,0.4-0.9,0.6-0.9
			c3.8,0,7.6,0.1,11.6,0.3c4,0.2,7.7,0.3,11.2,0.3c3.6,0,7.4-0.1,11.3-0.3c3.9-0.2,7.8-0.3,11.6-0.3c0.2,0,0.4,0.3,0.6,0.9
			c0.2,0.6,0.3,1.2,0.3,1.6c0,0.4-0.1,0.9-0.3,1.6c-0.2,0.7-0.4,1-0.6,1c-4.5,0.5-7.6,1.5-9.1,2.9c-1.5,1.5-2.2,3.8-2.2,6.9v53.4
			c0,2.8,0.8,4.7,2.3,5.6c1.5,0.9,3.1,1.4,4.6,1.4h6.7c5.5,0,10.4-2.6,14.6-7.8c4.3-5.2,7-11,8.2-17.4c0-0.2,0.1-0.3,0.4-0.4
			c0.3-0.1,0.7-0.1,1.2-0.1c0.9,0,1.7,0.2,2.5,0.5C161.3,61.1,161.6,61.5,161.5,62z"/>
	</g>
	<g id="l2">
		<path fill="#483D41" d="M151.1,77.2c-0.4,3.5,0.4,3.4,0,8.5s0.1,4.3,0,6.8c-3.9-0.1-9.2,0.1-15.1,0c-5.9-0.1-8.7,0-12.4,0
			c-4,0-6.9-0.1-13.2,0c-6.3,0.1-8.1-0.1-11.2,0c-0.2,0,0.2-2.3,0-2.8c-0.2-0.5,0-2.9,0-3.4c0-0.3,0-1.7,0-2.3
			c-0.1-1.2-0.3-2.1-0.2-2.1c0.1-4.5-0.1-2,0.1-3.6c0.1-1.5,0.1-0.7,0.1-3.3V32.4c0-2.6,0-2.9,0-4.6c0-1.1,0-1,0-3.1
			c-0.2-0.1,0.1-1.4,0-1.9c-0.2-0.5,0-3.3,0-3.6c0-0.4,0-3.5,0.1-4c0.2-0.5-0.3-4.3-0.1-4.3c3,0,1.7-0.2,4.8,0c3.2,0.2,1.9,0,4.7,0
			c2.9,0,1.3,0.2,4.4,0c3.1-0.2,0.2-0.2,3.3-0.2c0.2,0,0.2,1.4,0,2.1c-0.1,0.5,0.3,3.2,0.3,3.6c0,0.3,0.1,4-0.1,4.6
			c-0.2,0.5,0,2.8-0.2,2.8c0.1,0.7,0,0,0.3,2.7c0.2,1.7-0.2,2.1-0.2,4.6v41.6c0,2.2,0,4.6,0,4.6c2.4,0,5.3,0,6.6,0h8.4
			c4.4,0-0.7,0,4.6,0c1.9,0,0,0,3.5,0c0-0.1,3.1,0.1,3.3,0c0.2-0.1,4.2,0.1,4.6,0.1c0.7,0,2.6-0.2,3.3,0.1
			C151.5,77.6,151.2,76.9,151.1,77.2z"/>
	</g>
</svg>

<svg id="fluxLogoU" version="1.1" xmlns="http://www.w3.org/2000/svg" xmlns:xlink="http://www.w3.org/1999/xlink" x="0px" y="0px" viewBox="0 0 369.5 104.6" enable-background="new 0 0 369.5 104.6" xml:space="preserve">
	<g id="u1">
		<path fill="#483D41" d="M256.5,13.2c0,0.4-0.1,0.9-0.3,1.6c-0.2,0.7-0.4,1-0.6,1c-4.5,0.5-7.6,1.4-9.2,2.8
			c-1.6,1.4-2.4,3.8-2.4,7.1v37c0,8.5-2.6,15.9-7.9,22.2c-5.3,6.2-13.2,9.3-24,9.3c-13,0-22.9-2.9-29.7-8.6
			c-6.8-5.8-10.2-14.6-10.2-26.6V25.7c0-3.2-0.7-5.5-2.2-6.9c-1.4-1.4-4.5-2.4-9.1-2.9c-0.2-0.1-0.5-0.4-0.6-1.1
			c-0.2-0.6-0.3-1.1-0.3-1.5c0-0.5,0.1-1,0.3-1.6c0.2-0.6,0.4-0.9,0.6-0.9c3.8,0,7.7,0.1,11.6,0.3c3.9,0.2,7.7,0.3,11.3,0.3
			c3.5,0,7.3-0.1,11.2-0.3c4-0.2,7.8-0.3,11.6-0.3c0.2,0,0.4,0.3,0.6,0.9c0.2,0.6,0.3,1.2,0.3,1.6c0,0.4-0.1,0.9-0.3,1.6
			c-0.2,0.7-0.4,1-0.6,1c-4.5,0.5-7.6,1.5-9.1,2.9c-1.5,1.5-2.2,3.8-2.2,6.9v37.3c0,8,1.5,13.9,4.5,17.6c3,3.8,8.3,5.6,16,5.6
			c7,0,12.1-2.2,15.5-6.6c3.3-4.4,5-10.4,5-18.1V25.7c0-3.2-0.8-5.5-2.3-6.9c-1.5-1.4-4.6-2.4-9.1-2.9c-0.2-0.1-0.5-0.4-0.6-1.1
			c-0.2-0.6-0.3-1.1-0.3-1.5c0-0.5,0.1-1.1,0.3-1.7c0.2-0.6,0.4-0.9,0.6-0.9c2.6,0,5.1,0.1,7.5,0.3c2.4,0.2,5,0.3,7.8,0.3
			c2.7,0,5.3-0.1,7.6-0.3c2.3-0.2,4.9-0.3,7.7-0.3c0.2,0,0.4,0.3,0.6,0.9C256.4,12.2,256.5,12.7,256.5,13.2z"/>
	</g>
	<g id="u2">
		<path fill="#483D41" d="M248,20.6c0,0.3,0.1,2.6-0.1,3.1c-0.2,0.5,0.2,2.6,0,2.6c0,2.9,0,4.2,0,8.1c0,1.7,0,5.7,0,8.3l-0.1,20.5
			c0,6.8-4,17.8-11,23c-5.2,3.9-15.6,7.6-24.1,7.6c-10.4,0-19.9-2.2-25.6-6.4c-6.3-4.6-12.6-13.1-12.6-22.7l-0.3-13.5
			c0-2.6,0.2-13.4,0-15c-0.2-1.8,0-3.1,0-5.5c-0.2-0.1,0.1-4-0.1-4.5c-0.2-0.5,0-3.9,0-4.2c0-0.4,0-5.5,0.1-6c0-0.9-0.2-5.2,0-5.2
			c3.1,0,1.2-0.2,4.3,0c3.1,0.2,2.2,0,5,0c2.8,0,1.6,0,4.8-0.2c3.2-0.2,0.5,0.2,3.5,0.2c0.2,0-0.2,4.7,0,5.2c0.2,0.5,0,2.9,0,3.3
			c0,0.3,0,4.4,0,5c0,1.9,0.3,4.1,0.1,4.1c-0.1,2-0.3,5.2-0.3,7.2c-0.1,2.3,0.2,6.7,0.2,9.2l0.9,21.4c1.7,5.1,4.7,9,8.3,10.3
			c4.4,1.5,3.9,2.1,10,2.1c5.6,0,11.5-1.7,14.1-5.2c2.7-3.5,3.4-2.9,4.5-9.2l0.4-24.6c0-2.6,0-4.3-0.1-5.7c-0.1-1.7,0.1-1.9-0.1-4.2
			c-0.2-0.1,0.3-3,0.2-3.5c-0.2-0.5,0-4.2,0-4.5c0-0.4-0.2-2.5,0-3c0.2-0.5-0.2-7.7,0-7.7c2.1,0,3.6-0.2,5.5,0c1.9,0.2,1.4,0,3.6,0
			c2.2,0,2.9,0.2,4.7,0c1.8-0.2,1.7,0,3.9,0c0.2,0-0.1,6.2,0,6.7C248.1,17.9,248,20.3,248,20.6z"/>
	</g>
</svg>

<svg id="fluxLogoX" version="1.1" xmlns="http://www.w3.org/2000/svg" xmlns:xlink="http://www.w3.org/1999/xlink" x="0px" y="0px" viewBox="0 0 369.5 104.6" enable-background="new 0 0 369.5 104.6" xml:space="preserve">
	<g id="x1">
		<path fill="#483D41" d="M354.9,89.7c0,0.5-0.1,1-0.3,1.6c-0.2,0.6-0.4,0.9-0.6,0.9c-2.7,0-6.4-0.1-11-0.3
			c-4.6-0.2-8.4-0.3-11.3-0.3c-3.6,0-7.8,0.1-12.5,0.3c-4.7,0.2-9,0.3-12.8,0.3c-0.2,0-0.5-0.3-0.6-0.9c-0.2-0.6-0.3-1.2-0.3-1.7
			c0-0.4,0.1-0.9,0.3-1.5c0.2-0.6,0.4-1,0.6-1.1c2.9-0.4,5-0.8,6.3-1.2c1.3-0.4,1.9-1.3,1.9-2.6c0-0.6-0.2-1.4-0.7-2.3
			c-0.5-0.9-1.2-2.2-2.2-3.6L299.7,60l-14.1,17.3c-0.7,0.8-1.3,1.6-1.7,2.6c-0.4,0.9-0.6,1.7-0.6,2.4c0,1.4,0.7,2.5,2,3.3
			c1.3,0.8,3.4,1.3,6.2,1.6c0.2,0,0.4,0.3,0.5,1c0.1,0.7,0.2,1.2,0.2,1.6c0,0.5-0.1,1-0.3,1.6c-0.2,0.6-0.4,0.9-0.6,0.9
			c-3.8,0-6.7-0.1-8.9-0.3c-2.2-0.2-4.9-0.3-8-0.3c-2.5,0-4.8,0.1-6.8,0.3c-2,0.2-4.5,0.3-7.5,0.3c-0.2,0-0.5-0.3-0.6-0.9
			c-0.2-0.6-0.3-1.2-0.3-1.7c0-0.4,0.2-0.9,0.5-1.5c0.3-0.6,0.6-1,0.8-1.1c3.5-0.4,6.6-1.4,9.3-3.2c2.7-1.7,5.4-4.2,8.1-7.5
			l18.6-21.4l-19.2-28c-2.5-3.6-4.8-6.3-7-8c-2.2-1.7-5.5-2.8-9.9-3.3c-0.2-0.1-0.5-0.4-0.6-1.1c-0.2-0.6-0.3-1.1-0.3-1.5
			c0-0.5,0.1-1,0.3-1.6c0.2-0.6,0.4-0.9,0.6-0.9c2.7,0,6.3,0.1,10.8,0.3c4.4,0.2,8.1,0.3,11.1,0.3c3.6,0,7.8-0.1,12.7-0.3
			c4.9-0.2,9.2-0.3,13.1-0.3c0.2,0,0.5,0.3,0.6,0.9c0.2,0.6,0.3,1.2,0.3,1.6c0,0.4-0.1,0.9-0.3,1.6c-0.2,0.7-0.4,1-0.6,1
			c-2.8,0.3-4.8,0.8-6.1,1.5c-1.2,0.7-1.8,1.5-1.8,2.5c0,0.9,0.3,2,0.9,3.1c0.6,1.1,1.2,2.1,1.7,2.8l10.9,15.9l13.3-15.9
			c0.5-0.7,1-1.4,1.5-2.2c0.4-0.8,0.6-1.6,0.6-2.4c0-1.3-0.6-2.3-1.7-3.2c-1.1-0.9-3.9-1.6-8.3-2.1c-0.2-0.1-0.4-0.4-0.5-1.1
			c-0.1-0.6-0.2-1.1-0.2-1.5c0-0.5,0.1-1,0.3-1.6c0.2-0.6,0.4-0.9,0.6-0.9c3.8,0,7,0.1,9.5,0.3c2.5,0.2,5.5,0.3,9.1,0.3
			c3,0,5.2-0.1,6.5-0.3c1.4-0.2,3.9-0.3,7.7-0.3c0.2,0,0.4,0.3,0.6,0.9c0.2,0.6,0.3,1.2,0.3,1.6c0,0.4-0.2,0.9-0.5,1.6
			c-0.3,0.7-0.6,1-0.8,1c-3.1,0.2-5.9,1.1-8.3,2.7c-2.4,1.6-5.5,4.4-9.2,8.5l-17,19.6l21,30.7c2.4,3.4,4.7,5.8,6.7,7.2
			c2,1.4,5.1,2.3,9.2,2.7c0.2,0,0.4,0.3,0.6,1C354.8,88.8,354.9,89.4,354.9,89.7z"/>
	</g>
	<g id="x2">
		<path fill="#483D41" d="M343.6,85.7c0.9,1.3,1.9,2.6,2.2,3.1c0.9,1.4,2.7,3.6,2.5,3.6c-2.2,0-0.3,0.2-3.9,0c-3.6-0.2-5.7,0-8,0
			c-2.9,0-0.6-0.2-4.4,0c-3.7,0.2-1.4,0-4.4,0c-0.2,0-1.9-2.5-2-3c-0.2-0.5-2.2-2.8-2.2-3.2c0-0.3-1.6-2.1-2.1-2.9
			c-0.3-0.4-0.5-1-2.5-3.4c-0.7-1.8-1.6-2-2-3c-0.7-2-1-2.3-1.7-3c-0.8-0.9-0.7-0.6-1.1-1.3c-0.4-0.7-1.4-2.1-2.2-3.3l-4.6-6.7
			l-5.5,7.9c-0.6,0.6-3.9,5.4-4.2,6.1c-0.3,0.7-0.3,0.1-0.8,1.2c-0.5,1-0.2,0.2-0.8,1.2c-0.6,0.9-2.6,3.4-1.3,1.9
			c0.2,0-1.6,1.6-1.5,2.1c0.1,0.5-1.4,2-1.4,2.4c0,0.4-1.2,1.7-1.4,2.2c-0.2,0.5-3.4,4.8-3.6,4.8c-3,0-4,0.2-5.7,0
			c-1.7-0.2-0.5,0-3,0c-2,0-4-0.2-5.7,0c-1.6,0.2-3.9,0-6.3,0c-0.2,0,2.9-4.1,3.2-4.5c1.3-1.6,2.5-3,2.5-3.5c0-0.3,2.4-3.3,2.7-3.8
			c0.2-0.5,2-3.4,2.2-3.5c1.8-2,0.7-0.9,2.3-2.9c2.2-2.7,3-4.8,5.2-7.4l11.5-16.3l-14.3-20.4c-2-2.9-3.1-4.6-4.4-6.3
			c-1.2-1.6-0.7-1.3-1.8-2.7c-0.2-0.1-1.6-1.6-1.7-2.1c-0.2-0.5-1.5-2.1-1.5-2.4c0-0.4-1.7-2.1-2.1-2.9c-0.2-0.5-1.8-2.7-1.6-2.7
			c2.2,0,3.8-0.2,7.3,0c3.5,0.2,2.9,0,5.2,0c2.9,0-1.5,0.2,2.3,0c3.9-0.2,2.5,0,5.5,0c0.2,0,1.4,1.8,1.6,2.3c0.2,0.5,0.9,1.3,1.3,1.9
			c0.2,0.3,0.8,1.1,1,1.5c0.3,0.6,1.3,1.7,1.1,1.7c1.5,1.5,1,1.4,1.6,2.4c0.6,1,1,1.6,1.5,2.3c0.8,1,1.7,2.3,2.2,3.2
			c0.5,0.9,2.5,3.9,3,4.4l5.4,8l7.5-11.4c0.4-0.6,1.1-1.8,1.5-2.4c0.3-0.6,0.9-1.1,1.2-1.7c0.8-1.2,0.2-0.3,0.8-1.2
			c1.1-1.6,0.8-1.3,1.4-2.1c-0.2-0.1,0.8-1.3,1.1-1.7c0.6-1.1,0.9-1.2,1.4-2.2c0.2-0.3,1.4-2.8,2-3.3c0.4-0.3,1.3-1.9,1.5-1.9
			c3.1,0,2.2-0.2,4.2,0c2,0.2,2-0.1,4.9-0.1c2.4,0,3.7,0.2,4.8,0.1c1.1-0.2,4.1,0,7,0c0.2,0-2.7,3.8-3.6,5.1c-0.3,0.4-1,1.4-1.7,2.6
			c-0.2,0.3-0.5,0.7-0.8,1.2c-0.2,0.5-1,1.5-1.2,1.5c-1.4,2-0.9,1.2-2.2,3.1c-1.3,1.9-5.1,8.3-8.1,11.5l-10.2,14.6l13.1,18.8
			c1.9,2.7,1.9,2.7,3.4,4.7c1.2,1.6,1,1.8,2.4,3.6c0.2,0,2.2,2.8,2.4,3.3C340.9,82,343.4,85.4,343.6,85.7z"/>
	</g>
</svg>