<?xml version="1.0" encoding="utf-8"?>
<!-- Generator: Adobe Illustrator 16.0.0, SVG Export Plug-In . SVG Version: 6.00 Build 0)  -->
<!DOCTYPE svg PUBLIC "-//W3C//DTD SVG 1.1//EN" "http://www.w3.org/Graphics/SVG/1.1/DTD/svg11.dtd">
<svg version="1.1" xmlns="http://www.w3.org/2000/svg" xmlns:xlink="http://www.w3.org/1999/xlink" x="0px" y="0px" width="792px"
	 height="224px" viewBox="0 0 792 224" enable-background="new 0 0 792 224" xml:space="preserve">
<g id="Layer_1">
	<path fill="none" stroke="#000000" stroke-width="1.0959" stroke-miterlimit="10" d="M756.676,151.952h-18.727V92.775
		c0,0-9.314-19.726-29.588-19.726s-29.589,19.726-29.589,19.726v59.177h-19.725v-69.04h-9.863V73.05h-9.862v9.863H599.87v69.04
		h-16.438v-39.451l-19.726-29.588l-19.726,29.588v39.451h-19.725V92.775h4.862v-9.863h-4.862V73.05h-81.114v10.959h-4.863v8.767
		h4.863v59.177h-26.78V92.775h4.862V86.2l-29.588-23.013L362.048,86.2l0,6.575h4.862v59.177h-17.684v-49.314l-33.37-9.863
		l-28.492,9.863v49.314h-17.863v-49.314l-29.588-19.726l-29.588,19.726v49.314H186.6v-39.451h3.863v-9.863H186.6l-29.588-49.314
		l-29.588,49.314h-3.863v9.863h3.863v39.451H106.5l-2-50l-5.977-2.989L98.5,82.75l-9.313-0.063l0.038,11.627L80.5,89.952l-23,12
		l-1.75,50.298L40,151.952"/>
</g>
<g id="Layer_2">
	
		<rect x="449.204" y="113.156" fill="none" stroke="#000000" stroke-width="1.0959" stroke-miterlimit="10" width="18.852" height="18.438"/>
	
		<rect x="499.944" y="113.156" fill="none" stroke="#000000" stroke-width="1.0959" stroke-miterlimit="10" width="18.852" height="18.438"/>
	
		<rect x="449.388" y="82" fill="none" stroke="#000000" stroke-width="1.0959" stroke-miterlimit="10" width="28.475" height="22.25"/>
	
		<rect x="492.091" y="82" fill="none" stroke="#000000" stroke-width="1.0959" stroke-miterlimit="10" width="26.568" height="22.25"/>
	<polyline fill="none" stroke="#000000" stroke-width="1.0959" stroke-miterlimit="10" points="475.136,151.75 475.136,113.163 
		493.114,113.163 493.114,151.75 	"/>
	<circle fill="none" stroke="#000000" stroke-width="1.0959" stroke-miterlimit="10" cx="488.73" cy="133.625" r="1.608"/>
	<line fill="none" stroke="#000000" stroke-width="1.0959" stroke-miterlimit="10" x1="463.052" y1="82.5" x2="463.052" y2="104"/>
	
		<line fill="none" stroke="#000000" stroke-width="1.0959" stroke-miterlimit="10" x1="504.938" y1="82.333" x2="504.938" y2="104.333"/>
	
		<line fill="none" stroke="#000000" stroke-width="1.0959" stroke-miterlimit="10" x1="458.526" y1="113.501" x2="458.526" y2="131.317"/>
	
		<line fill="none" stroke="#000000" stroke-width="1.0959" stroke-miterlimit="10" x1="509.335" y1="113.363" x2="509.335" y2="131.594"/>
</g>
</svg>
